<svg width="36" height="36" viewBox="0 0 36 36" fill="none" xmlns="http://www.w3.org/2000/svg">
<path d="M23.8125 8.74072C23.8125 9.9342 24.2867 11.0788 25.1306 11.9227C25.9745 12.7666 27.1191 13.2407 28.3125 13.2407C29.5059 13.2407 30.6505 12.7666 31.4944 11.9227C32.3383 11.0788 32.8125 9.9342 32.8125 8.74072C32.8125 7.54725 32.3383 6.40266 31.4944 5.55874C30.6505 4.71483 29.5059 4.24072 28.3125 4.24072C27.1191 4.24072 25.9745 4.71483 25.1306 5.55874C24.2867 6.40266 23.8125 7.54725 23.8125 8.74072Z" fill="#ED008C" stroke="#ED008C" stroke-width="2.25" stroke-linecap="round" stroke-linejoin="round"/>
<path d="M13.6875 32.625C13.878 33.2741 14.2736 33.8439 14.8151 34.2492C15.3565 34.6546 16.0149 34.8738 16.6912 34.8738C17.3676 34.8738 18.0259 34.6546 18.5673 34.2492C19.1088 33.8439 19.5045 33.2741 19.695 32.625" stroke="#6E636A" stroke-width="2.25" stroke-linecap="round" stroke-linejoin="round"/>
<path d="M16.6875 4.5V1.125" stroke="#6E636A" stroke-width="2.25" stroke-linecap="round" stroke-linejoin="round"/>
<path d="M27.972 17.9417C28.2555 26.5757 30.1875 28.1252 30.1875 28.1252H3.1875C3.1875 28.1252 5.4375 25.2512 5.4375 15.7502C5.43918 13.9877 5.85455 12.2502 6.65016 10.6776C7.44578 9.10493 8.59944 7.74099 10.0183 6.69551C11.4372 5.65004 13.0816 4.95221 14.8194 4.65818C16.5571 4.36415 18.3396 4.48212 20.0235 5.00262" stroke="#6E636A" stroke-width="2.25" stroke-linecap="round" stroke-linejoin="round"/>
</svg>
