<svg width="20" height="20" viewBox="0 0 20 20" fill="none" xmlns="http://www.w3.org/2000/svg">
<g clip-path="url(#clip0_6_309)">
<path d="M8.48875 10.2537L6.12125 12.6225C6.023 12.7168 5.94456 12.8298 5.89052 12.9548C5.83648 13.0798 5.80793 13.2144 5.80654 13.3506C5.80515 13.4868 5.83095 13.6219 5.88243 13.748C5.93391 13.8741 6.01003 13.9886 6.10634 14.0849C6.20264 14.1812 6.3172 14.2573 6.44329 14.3088C6.56939 14.3603 6.70449 14.3861 6.84068 14.3847C6.97687 14.3833 7.11141 14.3548 7.23643 14.3007C7.36145 14.2467 7.47443 14.1683 7.56875 14.07L9.9375 11.7025L12.305 14.07C12.3993 14.1683 12.5123 14.2467 12.6373 14.3007C12.7623 14.3548 12.8969 14.3833 13.0331 14.3847C13.1693 14.3861 13.3044 14.3603 13.4305 14.3088C13.5566 14.2573 13.6711 14.1812 13.7674 14.0849C13.8637 13.9886 13.9398 13.8741 13.9913 13.748C14.0428 13.6219 14.0686 13.4868 14.0672 13.3506C14.0658 13.2144 14.0373 13.0798 13.9832 12.9548C13.9292 12.8298 13.8507 12.7168 13.7525 12.6225L11.385 10.2537L13.7525 7.88625C13.9446 7.6943 14.0526 7.43389 14.0527 7.16232C14.0528 6.89074 13.9451 6.63024 13.7531 6.43812C13.5612 6.24601 13.3008 6.13801 13.0292 6.1379C12.7576 6.13778 12.4971 6.24555 12.305 6.4375L9.9375 8.80625L7.56875 6.43875C7.37549 6.25322 7.11721 6.15084 6.84932 6.15357C6.58144 6.1563 6.3253 6.26393 6.13586 6.45336C5.94643 6.6428 5.8388 6.89894 5.83607 7.16682C5.83334 7.43471 5.93572 7.69299 6.12125 7.88625L8.4875 10.2537H8.48875ZM10 20C7.34784 20 4.8043 18.9464 2.92893 17.0711C1.05357 15.1957 0 12.6522 0 10C0 7.34784 1.05357 4.8043 2.92893 2.92893C4.8043 1.05357 7.34784 0 10 0C12.6522 0 15.1957 1.05357 17.0711 2.92893C18.9464 4.8043 20 7.34784 20 10C20 12.6522 18.9464 15.1957 17.0711 17.0711C15.1957 18.9464 12.6522 20 10 20Z" fill="#FF0000"/>
</g>
<defs>
<clipPath id="clip0_6_309">
<rect width="20" height="20" fill="white"/>
</clipPath>
</defs>
</svg>
