<svg width="20" height="20" viewBox="0 0 20 20" fill="none" xmlns="http://www.w3.org/2000/svg">
<g clip-path="url(#clip0_6_305)">
<path d="M10 20C4.4775 20 0 15.5225 0 10C0 4.4775 4.4775 0 10 0C15.5225 0 20 4.4775 20 10C20 15.5225 15.5225 20 10 20ZM7.77 13.9267C7.86673 14.0234 7.98158 14.1002 8.10798 14.1525C8.23437 14.2049 8.36985 14.2319 8.50667 14.2319C8.64348 14.2319 8.77896 14.2049 8.90536 14.1525C9.03176 14.1002 9.1466 14.0234 9.24333 13.9267L15.5583 7.61167C15.6551 7.51493 15.7318 7.40008 15.7842 7.27368C15.8365 7.14728 15.8635 7.01181 15.8635 6.875C15.8635 6.73819 15.8365 6.60272 15.7842 6.47632C15.7318 6.34992 15.6551 6.23507 15.5583 6.13833C15.4616 6.04159 15.3467 5.96485 15.2203 5.9125C15.094 5.86014 14.9585 5.8332 14.8217 5.8332C14.6849 5.8332 14.5494 5.86014 14.423 5.9125C14.2966 5.96485 14.1817 6.04159 14.085 6.13833L8.46167 11.6717L5.945 9.155C5.74962 8.95962 5.48464 8.84986 5.20833 8.84986C4.93203 8.84986 4.66704 8.95962 4.47167 9.155C4.27629 9.35038 4.16653 9.61536 4.16653 9.89167C4.16653 10.0285 4.19348 10.1639 4.24583 10.2903C4.29819 10.4167 4.37493 10.5316 4.47167 10.6283L7.77 13.9267Z" fill="#1ACB2D"/>
</g>
<defs>
<clipPath id="clip0_6_305">
<rect width="20" height="20" fill="white"/>
</clipPath>
</defs>
</svg>
