<svg width="20" height="20" viewBox="0 0 20 20" fill="none" xmlns="http://www.w3.org/2000/svg">
<g clip-path="url(#clip0_6_63)">
<path d="M13.1251 19.375V13.125C13.1251 12.7935 12.9934 12.4756 12.759 12.2412C12.5245 12.0067 12.2066 11.875 11.8751 11.875H8.12508C7.79356 11.875 7.47562 12.0067 7.2412 12.2412C7.00678 12.4756 6.87508 12.7935 6.87508 13.125V19.375H1.44175C1.22074 19.375 1.00878 19.2872 0.852497 19.131C0.696217 18.9747 0.60842 18.7627 0.60842 18.5417V8.12505C0.637249 7.88229 0.756218 7.65923 0.941753 7.50005L10.0001 0.625054L13.3334 3.12505V1.04172H17.0834V5.96672L19.0584 7.50005C19.2472 7.67219 19.361 7.91158 19.3751 8.16672V18.5584C19.3751 18.7794 19.2873 18.9914 19.131 19.1476C18.9747 19.3039 18.7628 19.3917 18.5417 19.3917L13.1251 19.375Z" stroke="#ED008C" stroke-width="1.2" stroke-linecap="round" stroke-linejoin="round"/>
</g>
<defs>
<clipPath id="clip0_6_63">
<rect width="19.2" height="19.2" fill="white" transform="scale(1.04167)"/>
</clipPath>
</defs>
</svg>
