<svg width="20" height="20" viewBox="0 0 20 20" fill="none" xmlns="http://www.w3.org/2000/svg">
<g clip-path="url(#clip0_6_51)">
<path d="M8.7501 2.81254C8.7501 3.3927 8.98056 3.9491 9.3908 4.35933C9.80103 4.76957 10.3574 5.00003 10.9376 5.00003C11.5178 5.00003 12.0742 4.76957 12.4844 4.35933C12.8946 3.9491 13.1251 3.3927 13.1251 2.81254C13.1251 2.23238 12.8946 1.67598 12.4844 1.26574C12.0742 0.855506 11.5178 0.625038 10.9376 0.625038C10.3574 0.625038 9.80103 0.855506 9.3908 1.26574C8.98056 1.67598 8.7501 2.23238 8.7501 2.81254Z" stroke="#A599A0" stroke-width="1.2" stroke-linecap="round" stroke-linejoin="round"/>
<path d="M14.3751 17.1875C14.3751 17.7677 14.6056 18.3241 15.0158 18.7343C15.426 19.1446 15.9824 19.375 16.5626 19.375C17.1428 19.375 17.6992 19.1446 18.1094 18.7343C18.5196 18.3241 18.7501 17.7677 18.7501 17.1875C18.7501 16.6074 18.5196 16.051 18.1094 15.6408C17.6992 15.2305 17.1428 15 16.5626 15C15.9824 15 15.426 15.2305 15.0158 15.6408C14.6056 16.051 14.3751 16.6074 14.3751 17.1875Z" stroke="#A599A0" stroke-width="1.2" stroke-linecap="round" stroke-linejoin="round"/>
<path d="M11.5626 19.375H7.1876C6.97179 19.375 6.75967 19.3191 6.57187 19.2128C6.38407 19.1065 6.227 18.9534 6.11593 18.7684L4.60426 16.25H2.1876C1.85608 16.25 1.53814 16.1183 1.30372 15.8839C1.0693 15.6495 0.9376 15.3316 0.9376 15C0.9376 14.6685 1.0693 14.3506 1.30372 14.1162C1.53814 13.8817 1.85608 13.75 2.1876 13.75H5.3126C5.5284 13.75 5.74052 13.8059 5.92832 13.9122C6.11612 14.0186 6.2732 14.1717 6.38426 14.3567L7.89593 16.875H11.5626C11.8941 16.875 12.2121 17.0067 12.4465 17.2412C12.6809 17.4756 12.8126 17.7935 12.8126 18.125C12.8126 18.4566 12.6809 18.7745 12.4465 19.0089C12.2121 19.2433 11.8941 19.375 11.5626 19.375Z" stroke="#A599A0" stroke-width="1.2" stroke-linecap="round" stroke-linejoin="round"/>
<path d="M7.1876 19.375H2.1876C1.85608 19.375 1.53814 19.2433 1.30372 19.0089C1.0693 18.7745 0.9376 18.4566 0.9376 18.125" stroke="#A599A0" stroke-width="1.2" stroke-linecap="round" stroke-linejoin="round"/>
<path d="M12.8126 10.5484C12.8124 10.8268 12.7193 11.0973 12.5479 11.3168C12.3766 11.5363 12.1369 11.6923 11.8668 11.76L11.2601 11.9117C10.9637 11.9851 10.7043 12.1645 10.5311 12.4161C10.3579 12.6676 10.2828 12.9738 10.3199 13.277C10.357 13.5801 10.5038 13.8592 10.7326 14.0615C10.9614 14.2638 11.2564 14.3753 11.5618 14.375C11.664 14.3747 11.7658 14.3624 11.8651 14.3384L12.4734 14.1859C13.2849 13.9837 14.0054 13.5157 14.52 12.8565C15.0345 12.1972 15.3136 11.3847 15.3126 10.5484V10C15.3126 9.337 15.0492 8.70111 14.5804 8.23227C14.1115 7.76343 13.4756 7.50004 12.8126 7.50004H9.19426C8.57723 7.49972 7.96965 7.65166 7.42541 7.94239C6.88116 8.23312 6.41706 8.65366 6.07427 9.16671L4.6876 11.25" stroke="#A599A0" stroke-width="1.2" stroke-linecap="round" stroke-linejoin="round"/>
</g>
<defs>
<clipPath id="clip0_6_51">
<rect width="19.2" height="19.2" fill="white" transform="scale(1.04167)"/>
</clipPath>
</defs>
</svg>
