<svg width="18" height="18" viewBox="0 0 18 18" fill="none" xmlns="http://www.w3.org/2000/svg">
<g clip-path="url(#clip0_6_81)">
<path d="M6.75 6.75012C6.75008 6.33764 6.86354 5.93312 7.07799 5.58077C7.29244 5.22842 7.5996 4.9418 7.96597 4.75223C8.33227 4.56267 8.74372 4.47746 9.15517 4.50591C9.5667 4.53436 9.96247 4.67538 10.2992 4.91356C10.636 5.15174 10.9008 5.4779 11.0647 5.85641C11.2286 6.23492 11.2853 6.65121 11.2286 7.05977C11.1719 7.46834 11.0041 7.85349 10.7433 8.17306C10.4825 8.49264 10.1389 8.73437 9.75 8.87184C9.53055 8.94947 9.34057 9.09316 9.20625 9.28321C9.07192 9.47334 8.99985 9.70037 9 9.93309V10.6876" stroke="#A599A0" stroke-width="1.125" stroke-linecap="round" stroke-linejoin="round"/>
<path d="M9 13.5C8.84467 13.5 8.71875 13.3741 8.71875 13.2188C8.71875 13.0634 8.84467 12.9375 9 12.9375" stroke="#A599A0" stroke-width="1.125"/>
<path d="M9 13.5C9.15533 13.5 9.28125 13.3741 9.28125 13.2188C9.28125 13.0634 9.15533 12.9375 9 12.9375" stroke="#A599A0" stroke-width="1.125"/>
<path d="M9 17.4375C13.6599 17.4375 17.4375 13.6599 17.4375 9C17.4375 4.3401 13.6599 0.5625 9 0.5625C4.3401 0.5625 0.5625 4.3401 0.5625 9C0.5625 13.6599 4.3401 17.4375 9 17.4375Z" stroke="#A599A0" stroke-width="1.125" stroke-miterlimit="10"/>
</g>
<defs>
<clipPath id="clip0_6_81">
<rect width="18" height="18" fill="white"/>
</clipPath>
</defs>
</svg>
