<svg width="20" height="20" viewBox="0 0 20 20" fill="none" xmlns="http://www.w3.org/2000/svg">
<g clip-path="url(#clip0_6_73)">
<path d="M5.6251 8.12491C5.6251 9.28523 6.08603 10.398 6.9065 11.2185C7.72698 12.039 8.83977 12.4999 10.0001 12.4999C11.1604 12.4999 12.2732 12.039 13.0937 11.2185C13.9142 10.398 14.3751 9.28523 14.3751 8.12491C14.3751 6.96458 13.9142 5.85179 13.0937 5.03132C12.2732 4.21084 11.1604 3.74991 10.0001 3.74991C8.83977 3.74991 7.72698 4.21084 6.9065 5.03132C6.08603 5.85179 5.6251 6.96458 5.6251 8.12491Z" stroke="#A599A0" stroke-width="1.2" stroke-linecap="round" stroke-linejoin="round"/>
<path d="M15.7609 17.3965C15.006 16.6369 14.1085 16.0341 13.1198 15.6228C12.1311 15.2115 11.0709 14.9997 10 14.9997C8.92919 14.9997 7.86894 15.2115 6.88026 15.6228C5.89158 16.0341 4.99401 16.6369 4.23919 17.3965" stroke="#A599A0" stroke-width="1.2" stroke-linecap="round" stroke-linejoin="round"/>
<path d="M0.625101 9.9999C0.625101 12.4863 1.61282 14.8709 3.37097 16.629C5.12913 18.3872 7.51369 19.3749 10.0001 19.3749C12.4865 19.3749 14.8711 18.3872 16.6292 16.629C18.3874 14.8709 19.3751 12.4863 19.3751 9.9999C19.3751 7.5135 18.3874 5.12894 16.6292 3.37078C14.8711 1.61263 12.4865 0.624911 10.0001 0.624911C7.51369 0.624911 5.12913 1.61263 3.37097 3.37078C1.61282 5.12894 0.625101 7.5135 0.625101 9.9999Z" stroke="#A599A0" stroke-width="1.2" stroke-linecap="round" stroke-linejoin="round"/>
</g>
<defs>
<clipPath id="clip0_6_73">
<rect width="19.2" height="19.2" fill="white" transform="scale(1.04167)"/>
</clipPath>
</defs>
</svg>
