<svg width="20" height="20" viewBox="0 0 20 20" fill="none" xmlns="http://www.w3.org/2000/svg">
<g clip-path="url(#clip0_6_67)">
<path d="M5.0001 10.6251C5.0001 11.9511 5.52688 13.2229 6.46456 14.1606C7.40225 15.0983 8.67401 15.625 10.0001 15.625C11.3262 15.625 12.5979 15.0983 13.5356 14.1606C14.4733 13.2229 15.0001 11.9511 15.0001 10.6251C15.0001 9.29897 14.4733 8.0272 13.5356 7.08952C12.5979 6.15184 11.3262 5.62505 10.0001 5.62505C8.67401 5.62505 7.40225 6.15184 6.46456 7.08952C5.52688 8.0272 5.0001 9.29897 5.0001 10.6251Z" stroke="#A599A0" stroke-width="1.2" stroke-linecap="round" stroke-linejoin="round"/>
<path d="M12.2101 10.6251H10.0001V8.41598" stroke="#A599A0" stroke-width="1.2" stroke-linecap="round" stroke-linejoin="round"/>
<path d="M18.7501 18.125C18.7501 18.4565 18.6184 18.7745 18.384 19.0089C18.1495 19.2433 17.8316 19.375 17.5001 19.375H2.5001C2.16858 19.375 1.85064 19.2433 1.61622 19.0089C1.3818 18.7745 1.2501 18.4565 1.2501 18.125V1.87504C1.2501 1.54352 1.3818 1.22557 1.61622 0.991154C1.85064 0.756734 2.16858 0.625038 2.5001 0.625038H15.0001C15.3262 0.625293 15.6393 0.752987 15.8726 0.980871L18.3726 3.38254C18.4921 3.49898 18.587 3.63816 18.6518 3.79187C18.7167 3.94558 18.7501 4.11071 18.7501 4.27754V18.125Z" stroke="#A599A0" stroke-width="1.2" stroke-linecap="round" stroke-linejoin="round"/>
</g>
<defs>
<clipPath id="clip0_6_67">
<rect width="19.2" height="19.2" fill="white" transform="scale(1.04167)"/>
</clipPath>
</defs>
</svg>
