<svg width="10" height="38" viewBox="0 0 10 38" fill="none" xmlns="http://www.w3.org/2000/svg">
<path d="M5.48011 0.198856C5.21495 -0.0663016 4.78505 -0.0663016 4.51989 0.198856L0.198898 4.51985C-0.0662595 4.78501 -0.0662595 5.21491 0.198898 5.48007C0.464056 5.74523 0.893961 5.74523 1.15912 5.48007L5 1.63919L8.84088 5.48007C9.10604 5.74523 9.53594 5.74523 9.8011 5.48007C10.0663 5.21491 10.0663 4.78501 9.8011 4.51985L5.48011 0.198856ZM4.51989 37.1449C4.78505 37.4101 5.21495 37.4101 5.48011 37.1449L9.8011 32.8239C10.0663 32.5588 10.0663 32.1289 9.8011 31.8637C9.53594 31.5986 9.10604 31.5986 8.84088 31.8637L5 35.7046L1.15912 31.8637C0.893961 31.5986 0.464056 31.5986 0.198898 31.8637C-0.0662595 32.1289 -0.0662595 32.5588 0.198898 32.8239L4.51989 37.1449ZM5 0.678966H4.32102V36.6648H5H5.67898V0.678966H5Z" fill="#E10174"/>
</svg>
