<svg width="31" height="23" viewBox="0 0 31 23" fill="none" xmlns="http://www.w3.org/2000/svg">
<path d="M11.0134 2.29304L11.3551 2.89497L11.0134 2.29304ZM5.42262 22.8771C5.73706 23.0945 6.1682 23.0158 6.38559 22.7014L9.92821 17.5774C10.1456 17.2629 10.0669 16.8318 9.7525 16.6144C9.43806 16.397 9.00693 16.4757 8.78954 16.7901L5.64054 21.3448L1.08583 18.1958C0.771392 17.9784 0.340259 18.0571 0.122864 18.3715C-0.0945283 18.686 -0.0158586 19.1171 0.298578 19.3345L5.42262 22.8771ZM30.3109 8.26598L30.8786 7.86986C29.8528 6.4001 27.1669 3.56467 23.5823 1.73032C19.976 -0.115073 15.3787 -0.98084 10.6717 1.6911L11.0134 2.29304L11.3551 2.89497C15.5328 0.523475 19.615 1.2552 22.9516 2.96266C26.3099 4.68115 28.8304 7.35391 29.7433 8.66209L30.3109 8.26598ZM11.0134 2.29304L10.6717 1.6911C6.0464 4.3167 4.48135 8.52449 4.16566 12.5318C3.85266 16.505 4.76094 20.3802 5.13533 22.432L5.81625 22.3078L6.49717 22.1835C6.10671 20.0437 5.25046 16.3883 5.54571 12.6405C5.83828 8.92665 7.25424 5.22287 11.3551 2.89497L11.0134 2.29304Z" fill="#E10174"/>
</svg>
