<svg width="31" height="14" viewBox="0 0 31 14" fill="none" xmlns="http://www.w3.org/2000/svg">
<path d="M17.9204 11.2311L17.6863 10.5939L17.9204 11.2311ZM26.2004 0.170961C25.9199 -0.0778057 25.4908 -0.052073 25.242 0.228438L21.1881 4.79962C20.9394 5.08013 20.9651 5.5092 21.2456 5.75796C21.5261 6.00673 21.9552 5.981 22.2039 5.70049L25.8074 1.63721L29.8707 5.24068C30.1512 5.48944 30.5803 5.46371 30.829 5.1832C31.0778 4.90269 31.0521 4.47363 30.7716 4.22486L26.2004 0.170961ZM0.437415 10.0394L1.75254e-05 10.5586C0.831506 11.2591 3.02577 12.4388 6.15497 13.0221C9.30756 13.6097 13.4426 13.5993 18.1545 11.8684L17.9204 11.2311L17.6863 10.5939C13.2241 12.2332 9.33864 12.2344 6.40377 11.6873C3.4455 11.1359 1.48533 10.0346 0.874813 9.52026L0.437415 10.0394ZM17.9204 11.2311L18.1545 11.8684C22.7788 10.1696 24.943 7.93442 25.8836 5.74517C26.8084 3.59291 26.4846 1.58884 26.4276 0.638229L25.7499 0.678871L25.0723 0.719513C25.1374 1.80482 25.4041 3.42183 24.6362 5.2092C23.8841 6.95958 22.0725 8.98259 17.6863 10.5939L17.9204 11.2311Z" fill="#E10174"/>
</svg>
