<svg width="35" height="18" viewBox="0 0 35 18" fill="none" xmlns="http://www.w3.org/2000/svg">
<path d="M17.7566 16.7416L17.5822 16.0713L17.7566 16.7416ZM30.3895 0.20289C30.1191 -0.0676154 29.6805 -0.067651 29.41 0.20281L25.0019 4.61023C24.7314 4.88069 24.7314 5.31923 25.0018 5.58973C25.2723 5.86024 25.7108 5.86027 25.9813 5.58981L29.8997 1.67211L33.8174 5.59045C34.0878 5.86095 34.5264 5.86099 34.7969 5.59053C35.0674 5.32007 35.0674 4.88153 34.7969 4.61102L30.3895 0.20289ZM0.651331 5.97055L0.000114247 6.20642C0.610864 7.89268 2.47262 11.3289 5.46234 14.0303C8.47004 16.748 12.6894 18.7754 17.931 17.4119L17.7566 16.7416L17.5822 16.0713C12.93 17.2815 9.17392 15.517 6.39103 13.0025C3.59015 10.4717 1.84616 7.23557 1.30255 5.73469L0.651331 5.97055ZM17.7566 16.7416L17.931 17.4119C28.0916 14.7687 30.592 5.19183 30.5924 0.692659L29.8997 0.692602L29.2071 0.692546C29.2068 4.9008 26.8563 13.6588 17.5822 16.0713L17.7566 16.7416Z" fill="#E10174"/>
</svg>
