<svg width="10" height="28" viewBox="0 0 10 28" fill="none" xmlns="http://www.w3.org/2000/svg">
<path d="M5.48011 0.198856C5.21495 -0.0663016 4.78505 -0.0663016 4.51989 0.198856L0.198898 4.51985C-0.0662597 4.785 -0.0662597 5.21491 0.198898 5.48007C0.464055 5.74523 0.893961 5.74523 1.15912 5.48007L5 1.63919L8.84088 5.48007C9.10604 5.74523 9.53594 5.74523 9.8011 5.48007C10.0663 5.21491 10.0663 4.78501 9.8011 4.51985L5.48011 0.198856ZM4.51989 27.6392C4.78505 27.9044 5.21495 27.9044 5.48011 27.6392L9.8011 23.3182C10.0663 23.0531 10.0663 22.6232 9.8011 22.358C9.53594 22.0929 9.10604 22.0929 8.84088 22.358L5 26.1989L1.15912 22.358C0.89396 22.0929 0.464055 22.0929 0.198897 22.358C-0.0662604 22.6232 -0.0662605 23.0531 0.198897 23.3182L4.51989 27.6392ZM5 0.678966L4.32102 0.678966L4.32102 27.1591L5 27.1591L5.67898 27.1591L5.67898 0.678966L5 0.678966Z" fill="#E10174"/>
</svg>
