%TF.GenerationSoftware,KiCad,Pcbnew,8.0.8*%
%TF.CreationDate,2025-05-04T21:19:18-07:00*%
%TF.ProjectId,ACL_Angle_Sensor,41434c5f-416e-4676-9c65-5f53656e736f,rev?*%
%TF.SameCoordinates,Original*%
%TF.FileFunction,Soldermask,Bot*%
%TF.FilePolarity,Negative*%
%FSLAX46Y46*%
G04 Gerber Fmt 4.6, Leading zero omitted, Abs format (unit mm)*
G04 Created by KiCad (PCBNEW 8.0.8) date 2025-05-04 21:19:18*
%MOMM*%
%LPD*%
G01*
G04 APERTURE LIST*
G04 Aperture macros list*
%AMRoundRect*
0 Rectangle with rounded corners*
0 $1 Rounding radius*
0 $2 $3 $4 $5 $6 $7 $8 $9 X,Y pos of 4 corners*
0 Add a 4 corners polygon primitive as box body*
4,1,4,$2,$3,$4,$5,$6,$7,$8,$9,$2,$3,0*
0 Add four circle primitives for the rounded corners*
1,1,$1+$1,$2,$3*
1,1,$1+$1,$4,$5*
1,1,$1+$1,$6,$7*
1,1,$1+$1,$8,$9*
0 Add four rect primitives between the rounded corners*
20,1,$1+$1,$2,$3,$4,$5,0*
20,1,$1+$1,$4,$5,$6,$7,0*
20,1,$1+$1,$6,$7,$8,$9,0*
20,1,$1+$1,$8,$9,$2,$3,0*%
G04 Aperture macros list end*
%ADD10O,1.100000X1.800000*%
%ADD11R,1.100000X1.800000*%
%ADD12C,1.982000*%
%ADD13RoundRect,0.102000X-0.889000X-0.889000X0.889000X-0.889000X0.889000X0.889000X-0.889000X0.889000X0*%
%ADD14C,3.404000*%
%ADD15C,1.562000*%
%ADD16RoundRect,0.102000X-0.679000X-0.679000X0.679000X-0.679000X0.679000X0.679000X-0.679000X0.679000X0*%
%ADD17C,1.612000*%
%ADD18RoundRect,0.102000X-0.704000X0.704000X-0.704000X-0.704000X0.704000X-0.704000X0.704000X0.704000X0*%
%ADD19R,1.700000X1.700000*%
%ADD20O,1.700000X1.700000*%
%ADD21RoundRect,0.250000X-0.600000X-0.750000X0.600000X-0.750000X0.600000X0.750000X-0.600000X0.750000X0*%
%ADD22O,1.700000X2.000000*%
G04 APERTURE END LIST*
D10*
%TO.C,D1*%
X150190000Y-59500000D03*
X148690000Y-59500000D03*
X146940000Y-59500000D03*
D11*
X145190000Y-59500000D03*
%TD*%
D12*
%TO.C,U2*%
X101230000Y-56667500D03*
X98690000Y-56667500D03*
X96150000Y-56667500D03*
X93610000Y-56667500D03*
X91070000Y-56667500D03*
X103770000Y-56667500D03*
X106310000Y-56667500D03*
X108850000Y-56667500D03*
X111390000Y-56667500D03*
D13*
X113930000Y-56667500D03*
D14*
X91070000Y-43967500D03*
X113930000Y-43967500D03*
%TD*%
D15*
%TO.C,U1*%
X136120000Y-53563500D03*
X136120000Y-56103500D03*
X136120000Y-58643500D03*
X136120000Y-61183500D03*
X136120000Y-51023500D03*
X136120000Y-48483500D03*
X136120000Y-45943500D03*
X120880000Y-53563500D03*
X120880000Y-56103500D03*
X120880000Y-58643500D03*
X120880000Y-61183500D03*
X120880000Y-51023500D03*
X120880000Y-48483500D03*
D16*
X120880000Y-45943500D03*
%TD*%
D17*
%TO.C,SW1*%
X148500000Y-47000000D03*
D18*
X148500000Y-44500000D03*
D17*
X148500000Y-49500000D03*
%TD*%
D19*
%TO.C,J2*%
X142000000Y-42960000D03*
D20*
X142000000Y-45500000D03*
X142000000Y-48040000D03*
%TD*%
%TO.C,J1*%
X104420000Y-62500000D03*
X106960000Y-62500000D03*
X109500000Y-62500000D03*
D19*
X112040000Y-62500000D03*
%TD*%
D21*
%TO.C,BT1*%
X92000000Y-62500000D03*
D22*
X94500000Y-62500000D03*
%TD*%
M02*
