%TF.GenerationSoftware,KiCad,Pcbnew,8.0.8*%
%TF.CreationDate,2025-05-04T21:19:18-07:00*%
%TF.ProjectId,ACL_Angle_Sensor,41434c5f-416e-4676-9c65-5f53656e736f,rev?*%
%TF.SameCoordinates,Original*%
%TF.FileFunction,Copper,L2,Bot*%
%TF.FilePolarity,Positive*%
%FSLAX46Y46*%
G04 Gerber Fmt 4.6, Leading zero omitted, Abs format (unit mm)*
G04 Created by KiCad (PCBNEW 8.0.8) date 2025-05-04 21:19:18*
%MOMM*%
%LPD*%
G01*
G04 APERTURE LIST*
G04 Aperture macros list*
%AMRoundRect*
0 Rectangle with rounded corners*
0 $1 Rounding radius*
0 $2 $3 $4 $5 $6 $7 $8 $9 X,Y pos of 4 corners*
0 Add a 4 corners polygon primitive as box body*
4,1,4,$2,$3,$4,$5,$6,$7,$8,$9,$2,$3,0*
0 Add four circle primitives for the rounded corners*
1,1,$1+$1,$2,$3*
1,1,$1+$1,$4,$5*
1,1,$1+$1,$6,$7*
1,1,$1+$1,$8,$9*
0 Add four rect primitives between the rounded corners*
20,1,$1+$1,$2,$3,$4,$5,0*
20,1,$1+$1,$4,$5,$6,$7,0*
20,1,$1+$1,$6,$7,$8,$9,0*
20,1,$1+$1,$8,$9,$2,$3,0*%
G04 Aperture macros list end*
%TA.AperFunction,ComponentPad*%
%ADD10O,1.100000X1.800000*%
%TD*%
%TA.AperFunction,ComponentPad*%
%ADD11R,1.100000X1.800000*%
%TD*%
%TA.AperFunction,ComponentPad*%
%ADD12C,1.778000*%
%TD*%
%TA.AperFunction,ComponentPad*%
%ADD13R,1.778000X1.778000*%
%TD*%
%TA.AperFunction,ComponentPad*%
%ADD14C,3.200000*%
%TD*%
%TA.AperFunction,ComponentPad*%
%ADD15C,1.358000*%
%TD*%
%TA.AperFunction,ComponentPad*%
%ADD16R,1.358000X1.358000*%
%TD*%
%TA.AperFunction,ComponentPad*%
%ADD17C,1.408000*%
%TD*%
%TA.AperFunction,ComponentPad*%
%ADD18R,1.408000X1.408000*%
%TD*%
%TA.AperFunction,ComponentPad*%
%ADD19R,1.700000X1.700000*%
%TD*%
%TA.AperFunction,ComponentPad*%
%ADD20O,1.700000X1.700000*%
%TD*%
%TA.AperFunction,ComponentPad*%
%ADD21RoundRect,0.250000X-0.600000X-0.750000X0.600000X-0.750000X0.600000X0.750000X-0.600000X0.750000X0*%
%TD*%
%TA.AperFunction,ComponentPad*%
%ADD22O,1.700000X2.000000*%
%TD*%
%TA.AperFunction,Conductor*%
%ADD23C,0.200000*%
%TD*%
G04 APERTURE END LIST*
D10*
%TO.P,D1,4,A*%
%TO.N,/GND*%
X150190000Y-59500000D03*
%TO.P,D1,3,RK*%
%TO.N,/LED_R*%
X148690000Y-59500000D03*
%TO.P,D1,2,BK*%
%TO.N,/LED_B*%
X146940000Y-59500000D03*
D11*
%TO.P,D1,1,GK*%
%TO.N,/LED_G*%
X145190000Y-59500000D03*
%TD*%
D12*
%TO.P,U2,6,ADDR*%
%TO.N,unconnected-(U2-ADDR-Pad6)*%
X101230000Y-56667500D03*
%TO.P,U2,7,SDA*%
%TO.N,/SDA*%
X98690000Y-56667500D03*
%TO.P,U2,8,SCL*%
%TO.N,/SCL*%
X96150000Y-56667500D03*
%TO.P,U2,9,GND*%
%TO.N,/GND*%
X93610000Y-56667500D03*
%TO.P,U2,10,VDD*%
%TO.N,/3V3*%
X91070000Y-56667500D03*
%TO.P,U2,5,ALERT*%
%TO.N,unconnected-(U2-ALERT-Pad5)*%
X103770000Y-56667500D03*
%TO.P,U2,4,A0*%
%TO.N,Net-(J2-Signal)*%
X106310000Y-56667500D03*
%TO.P,U2,3,A1*%
%TO.N,unconnected-(U2-A1-Pad3)*%
X108850000Y-56667500D03*
%TO.P,U2,2,A2*%
%TO.N,unconnected-(U2-A2-Pad2)*%
X111390000Y-56667500D03*
D13*
%TO.P,U2,1,A3*%
%TO.N,unconnected-(U2-A3-Pad1)*%
X113930000Y-56667500D03*
D14*
%TO.P,U2,P1*%
%TO.N,N/C*%
X91070000Y-43967500D03*
%TO.P,U2,P2*%
X113930000Y-43967500D03*
%TD*%
D15*
%TO.P,U1,11,D10*%
%TO.N,unconnected-(U1-D10-Pad11)*%
X136120000Y-53563500D03*
%TO.P,U1,10,D9*%
%TO.N,unconnected-(U1-D9-Pad10)*%
X136120000Y-56103500D03*
%TO.P,U1,9,D8*%
%TO.N,unconnected-(U1-D8-Pad9)*%
X136120000Y-58643500D03*
%TO.P,U1,8,RX_D7*%
%TO.N,unconnected-(U1-RX_D7-Pad8)*%
X136120000Y-61183500D03*
%TO.P,U1,12,VCC_3V3*%
%TO.N,/3V3*%
X136120000Y-51023500D03*
%TO.P,U1,13,GND*%
%TO.N,/GND*%
X136120000Y-48483500D03*
%TO.P,U1,14,VUSB*%
%TO.N,Net-(J1-5V)*%
X136120000Y-45943500D03*
%TO.P,U1,4,D3*%
%TO.N,Net-(U1-D3)*%
X120880000Y-53563500D03*
%TO.P,U1,5,D4*%
%TO.N,/SDA*%
X120880000Y-56103500D03*
%TO.P,U1,6,D5*%
%TO.N,/SCL*%
X120880000Y-58643500D03*
%TO.P,U1,7,TX_D6*%
%TO.N,unconnected-(U1-TX_D6-Pad7)*%
X120880000Y-61183500D03*
%TO.P,U1,3,D2*%
%TO.N,Net-(U1-D2)*%
X120880000Y-51023500D03*
%TO.P,U1,2,D1*%
%TO.N,Net-(U1-D1)*%
X120880000Y-48483500D03*
D16*
%TO.P,U1,1,D0*%
%TO.N,unconnected-(U1-D0-Pad1)*%
X120880000Y-45943500D03*
%TD*%
D17*
%TO.P,SW1,2,B*%
%TO.N,Net-(BT1-+)*%
X148500000Y-47000000D03*
D18*
%TO.P,SW1,1,A*%
%TO.N,Net-(J1-VIN)*%
X148500000Y-44500000D03*
D17*
%TO.P,SW1,3,C*%
%TO.N,unconnected-(SW1-C-Pad3)*%
X148500000Y-49500000D03*
%TD*%
D19*
%TO.P,J2,1,VCC*%
%TO.N,Net-(J1-5V)*%
X142000000Y-42960000D03*
D20*
%TO.P,J2,2,Signal*%
%TO.N,Net-(J2-Signal)*%
X142000000Y-45500000D03*
%TO.P,J2,3,GND*%
%TO.N,/GND*%
X142000000Y-48040000D03*
%TD*%
%TO.P,J1,4,En*%
%TO.N,unconnected-(J1-En-Pad4)*%
X104420000Y-62500000D03*
%TO.P,J1,3,5V*%
%TO.N,Net-(J1-5V)*%
X106960000Y-62500000D03*
%TO.P,J1,2,GND*%
%TO.N,/GND*%
X109500000Y-62500000D03*
D19*
%TO.P,J1,1,VIN*%
%TO.N,Net-(J1-VIN)*%
X112040000Y-62500000D03*
%TD*%
D21*
%TO.P,BT1,1,+*%
%TO.N,Net-(BT1-+)*%
X92000000Y-62500000D03*
D22*
%TO.P,BT1,2,-*%
%TO.N,/GND*%
X94500000Y-62500000D03*
%TD*%
D23*
%TO.N,/GND*%
X142000000Y-48040000D02*
X146544000Y-43496000D01*
X146544000Y-43496000D02*
X149504000Y-43496000D01*
X149504000Y-43496000D02*
X150190000Y-44182000D01*
X150190000Y-44182000D02*
X150190000Y-59500000D01*
%TO.N,Net-(J1-VIN)*%
X112040000Y-62500000D02*
X110890000Y-63650000D01*
X110890000Y-63650000D02*
X109023654Y-63650000D01*
X135714484Y-55124500D02*
X137875500Y-55124500D01*
X137875500Y-55124500D02*
X148500000Y-44500000D01*
X109023654Y-63650000D02*
X108350000Y-62976346D01*
X108350000Y-62976346D02*
X108350000Y-62023654D01*
X108350000Y-62023654D02*
X110169154Y-60204500D01*
X110169154Y-60204500D02*
X130634484Y-60204500D01*
X130634484Y-60204500D02*
X135714484Y-55124500D01*
%TO.N,Net-(J1-5V)*%
X106960000Y-62500000D02*
X109837500Y-59622500D01*
X122441000Y-59622500D02*
X136120000Y-45943500D01*
X109837500Y-59622500D02*
X122441000Y-59622500D01*
%TO.N,/SDA*%
X98690000Y-56667500D02*
X99879000Y-55478500D01*
X99879000Y-55478500D02*
X120255000Y-55478500D01*
X120255000Y-55478500D02*
X120880000Y-56103500D01*
%TO.N,/SCL*%
X96150000Y-56667500D02*
X98126000Y-58643500D01*
X98126000Y-58643500D02*
X120880000Y-58643500D01*
%TD*%
M02*
