M48
; DRILL file {KiCad 8.0.8} date 2025-05-04T21:19:27-0700
; FORMAT={-:-/ absolute / inch / decimal}
; #@! TF.CreationDate,2025-05-04T21:19:27-07:00
; #@! TF.GenerationSoftware,Kicad,Pcbnew,8.0.8
; #@! TF.FileFunction,Plated,1,2,PTH
FMAT,2
INCH
; #@! TA.AperFunction,Plated,PTH,ComponentDrill
T1C0.0335
; #@! TA.AperFunction,Plated,PTH,ComponentDrill
T2C0.0354
; #@! TA.AperFunction,Plated,PTH,ComponentDrill
T3C0.0394
; #@! TA.AperFunction,Plated,PTH,ComponentDrill
T4C0.0984
%
G90
G05
T1
X4.7591Y-1.8088
X4.7591Y-1.9088
X4.7591Y-2.0088
X4.7591Y-2.1088
X4.7591Y-2.2088
X4.7591Y-2.3088
X4.7591Y-2.4088
X5.3591Y-1.8088
X5.3591Y-1.9088
X5.3591Y-2.0088
X5.3591Y-2.1088
X5.3591Y-2.2088
X5.3591Y-2.3088
X5.3591Y-2.4088
T2
X5.7161Y-2.3425
X5.785Y-2.3425
X5.8465Y-1.752
X5.8465Y-1.8504
X5.8465Y-1.9488
X5.8539Y-2.3425
X5.913Y-2.3425
T3
X3.5854Y-2.231
X3.622Y-2.4606
X3.6854Y-2.231
X3.7205Y-2.4606
X3.7854Y-2.231
X3.8854Y-2.231
X3.9854Y-2.231
X4.0854Y-2.231
X4.111Y-2.4606
X4.1854Y-2.231
X4.211Y-2.4606
X4.2854Y-2.231
X4.311Y-2.4606
X4.3854Y-2.231
X4.411Y-2.4606
X4.4854Y-2.231
X5.5906Y-1.6913
X5.5906Y-1.7913
X5.5906Y-1.8913
T4
X3.5854Y-1.731
X4.4854Y-1.731
M30
