%TF.GenerationSoftware,KiCad,Pcbnew,8.0.8*%
%TF.CreationDate,2025-05-04T21:19:18-07:00*%
%TF.ProjectId,ACL_Angle_Sensor,41434c5f-416e-4676-9c65-5f53656e736f,rev?*%
%TF.SameCoordinates,Original*%
%TF.FileFunction,Legend,Top*%
%TF.FilePolarity,Positive*%
%FSLAX46Y46*%
G04 Gerber Fmt 4.6, Leading zero omitted, Abs format (unit mm)*
G04 Created by KiCad (PCBNEW 8.0.8) date 2025-05-04 21:19:18*
%MOMM*%
%LPD*%
G01*
G04 APERTURE LIST*
%ADD10C,0.150000*%
%ADD11C,0.120000*%
%ADD12C,0.127000*%
%ADD13C,0.200000*%
G04 APERTURE END LIST*
D10*
X146856905Y-55994819D02*
X146856905Y-54994819D01*
X146856905Y-54994819D02*
X147095000Y-54994819D01*
X147095000Y-54994819D02*
X147237857Y-55042438D01*
X147237857Y-55042438D02*
X147333095Y-55137676D01*
X147333095Y-55137676D02*
X147380714Y-55232914D01*
X147380714Y-55232914D02*
X147428333Y-55423390D01*
X147428333Y-55423390D02*
X147428333Y-55566247D01*
X147428333Y-55566247D02*
X147380714Y-55756723D01*
X147380714Y-55756723D02*
X147333095Y-55851961D01*
X147333095Y-55851961D02*
X147237857Y-55947200D01*
X147237857Y-55947200D02*
X147095000Y-55994819D01*
X147095000Y-55994819D02*
X146856905Y-55994819D01*
X148380714Y-55994819D02*
X147809286Y-55994819D01*
X148095000Y-55994819D02*
X148095000Y-54994819D01*
X148095000Y-54994819D02*
X147999762Y-55137676D01*
X147999762Y-55137676D02*
X147904524Y-55232914D01*
X147904524Y-55232914D02*
X147809286Y-55280533D01*
X92238095Y-38954819D02*
X92238095Y-39764342D01*
X92238095Y-39764342D02*
X92285714Y-39859580D01*
X92285714Y-39859580D02*
X92333333Y-39907200D01*
X92333333Y-39907200D02*
X92428571Y-39954819D01*
X92428571Y-39954819D02*
X92619047Y-39954819D01*
X92619047Y-39954819D02*
X92714285Y-39907200D01*
X92714285Y-39907200D02*
X92761904Y-39859580D01*
X92761904Y-39859580D02*
X92809523Y-39764342D01*
X92809523Y-39764342D02*
X92809523Y-38954819D01*
X93238095Y-39050057D02*
X93285714Y-39002438D01*
X93285714Y-39002438D02*
X93380952Y-38954819D01*
X93380952Y-38954819D02*
X93619047Y-38954819D01*
X93619047Y-38954819D02*
X93714285Y-39002438D01*
X93714285Y-39002438D02*
X93761904Y-39050057D01*
X93761904Y-39050057D02*
X93809523Y-39145295D01*
X93809523Y-39145295D02*
X93809523Y-39240533D01*
X93809523Y-39240533D02*
X93761904Y-39383390D01*
X93761904Y-39383390D02*
X93190476Y-39954819D01*
X93190476Y-39954819D02*
X93809523Y-39954819D01*
X122023095Y-39819819D02*
X122023095Y-40629342D01*
X122023095Y-40629342D02*
X122070714Y-40724580D01*
X122070714Y-40724580D02*
X122118333Y-40772200D01*
X122118333Y-40772200D02*
X122213571Y-40819819D01*
X122213571Y-40819819D02*
X122404047Y-40819819D01*
X122404047Y-40819819D02*
X122499285Y-40772200D01*
X122499285Y-40772200D02*
X122546904Y-40724580D01*
X122546904Y-40724580D02*
X122594523Y-40629342D01*
X122594523Y-40629342D02*
X122594523Y-39819819D01*
X123594523Y-40819819D02*
X123023095Y-40819819D01*
X123308809Y-40819819D02*
X123308809Y-39819819D01*
X123308809Y-39819819D02*
X123213571Y-39962676D01*
X123213571Y-39962676D02*
X123118333Y-40057914D01*
X123118333Y-40057914D02*
X123023095Y-40105533D01*
X151704200Y-44170333D02*
X151734676Y-44078904D01*
X151734676Y-44078904D02*
X151734676Y-43926523D01*
X151734676Y-43926523D02*
X151704200Y-43865571D01*
X151704200Y-43865571D02*
X151673723Y-43835095D01*
X151673723Y-43835095D02*
X151612771Y-43804618D01*
X151612771Y-43804618D02*
X151551819Y-43804618D01*
X151551819Y-43804618D02*
X151490866Y-43835095D01*
X151490866Y-43835095D02*
X151460390Y-43865571D01*
X151460390Y-43865571D02*
X151429914Y-43926523D01*
X151429914Y-43926523D02*
X151399438Y-44048428D01*
X151399438Y-44048428D02*
X151368961Y-44109380D01*
X151368961Y-44109380D02*
X151338485Y-44139857D01*
X151338485Y-44139857D02*
X151277533Y-44170333D01*
X151277533Y-44170333D02*
X151216580Y-44170333D01*
X151216580Y-44170333D02*
X151155628Y-44139857D01*
X151155628Y-44139857D02*
X151125152Y-44109380D01*
X151125152Y-44109380D02*
X151094676Y-44048428D01*
X151094676Y-44048428D02*
X151094676Y-43896047D01*
X151094676Y-43896047D02*
X151125152Y-43804618D01*
X151094676Y-43591285D02*
X151734676Y-43438904D01*
X151734676Y-43438904D02*
X151277533Y-43316999D01*
X151277533Y-43316999D02*
X151734676Y-43195094D01*
X151734676Y-43195094D02*
X151094676Y-43042714D01*
X151734676Y-42463665D02*
X151734676Y-42829380D01*
X151734676Y-42646523D02*
X151094676Y-42646523D01*
X151094676Y-42646523D02*
X151186104Y-42707475D01*
X151186104Y-42707475D02*
X151247057Y-42768427D01*
X151247057Y-42768427D02*
X151277533Y-42829380D01*
X140420833Y-61704819D02*
X140087500Y-61228628D01*
X139849405Y-61704819D02*
X139849405Y-60704819D01*
X139849405Y-60704819D02*
X140230357Y-60704819D01*
X140230357Y-60704819D02*
X140325595Y-60752438D01*
X140325595Y-60752438D02*
X140373214Y-60800057D01*
X140373214Y-60800057D02*
X140420833Y-60895295D01*
X140420833Y-60895295D02*
X140420833Y-61038152D01*
X140420833Y-61038152D02*
X140373214Y-61133390D01*
X140373214Y-61133390D02*
X140325595Y-61181009D01*
X140325595Y-61181009D02*
X140230357Y-61228628D01*
X140230357Y-61228628D02*
X139849405Y-61228628D01*
X140754167Y-60704819D02*
X141373214Y-60704819D01*
X141373214Y-60704819D02*
X141039881Y-61085771D01*
X141039881Y-61085771D02*
X141182738Y-61085771D01*
X141182738Y-61085771D02*
X141277976Y-61133390D01*
X141277976Y-61133390D02*
X141325595Y-61181009D01*
X141325595Y-61181009D02*
X141373214Y-61276247D01*
X141373214Y-61276247D02*
X141373214Y-61514342D01*
X141373214Y-61514342D02*
X141325595Y-61609580D01*
X141325595Y-61609580D02*
X141277976Y-61657200D01*
X141277976Y-61657200D02*
X141182738Y-61704819D01*
X141182738Y-61704819D02*
X140897024Y-61704819D01*
X140897024Y-61704819D02*
X140801786Y-61657200D01*
X140801786Y-61657200D02*
X140754167Y-61609580D01*
X140420833Y-57304819D02*
X140087500Y-56828628D01*
X139849405Y-57304819D02*
X139849405Y-56304819D01*
X139849405Y-56304819D02*
X140230357Y-56304819D01*
X140230357Y-56304819D02*
X140325595Y-56352438D01*
X140325595Y-56352438D02*
X140373214Y-56400057D01*
X140373214Y-56400057D02*
X140420833Y-56495295D01*
X140420833Y-56495295D02*
X140420833Y-56638152D01*
X140420833Y-56638152D02*
X140373214Y-56733390D01*
X140373214Y-56733390D02*
X140325595Y-56781009D01*
X140325595Y-56781009D02*
X140230357Y-56828628D01*
X140230357Y-56828628D02*
X139849405Y-56828628D01*
X140801786Y-56400057D02*
X140849405Y-56352438D01*
X140849405Y-56352438D02*
X140944643Y-56304819D01*
X140944643Y-56304819D02*
X141182738Y-56304819D01*
X141182738Y-56304819D02*
X141277976Y-56352438D01*
X141277976Y-56352438D02*
X141325595Y-56400057D01*
X141325595Y-56400057D02*
X141373214Y-56495295D01*
X141373214Y-56495295D02*
X141373214Y-56590533D01*
X141373214Y-56590533D02*
X141325595Y-56733390D01*
X141325595Y-56733390D02*
X140754167Y-57304819D01*
X140754167Y-57304819D02*
X141373214Y-57304819D01*
X140420833Y-53304819D02*
X140087500Y-52828628D01*
X139849405Y-53304819D02*
X139849405Y-52304819D01*
X139849405Y-52304819D02*
X140230357Y-52304819D01*
X140230357Y-52304819D02*
X140325595Y-52352438D01*
X140325595Y-52352438D02*
X140373214Y-52400057D01*
X140373214Y-52400057D02*
X140420833Y-52495295D01*
X140420833Y-52495295D02*
X140420833Y-52638152D01*
X140420833Y-52638152D02*
X140373214Y-52733390D01*
X140373214Y-52733390D02*
X140325595Y-52781009D01*
X140325595Y-52781009D02*
X140230357Y-52828628D01*
X140230357Y-52828628D02*
X139849405Y-52828628D01*
X141373214Y-53304819D02*
X140801786Y-53304819D01*
X141087500Y-53304819D02*
X141087500Y-52304819D01*
X141087500Y-52304819D02*
X140992262Y-52447676D01*
X140992262Y-52447676D02*
X140897024Y-52542914D01*
X140897024Y-52542914D02*
X140801786Y-52590533D01*
X141666666Y-39644819D02*
X141666666Y-40359104D01*
X141666666Y-40359104D02*
X141619047Y-40501961D01*
X141619047Y-40501961D02*
X141523809Y-40597200D01*
X141523809Y-40597200D02*
X141380952Y-40644819D01*
X141380952Y-40644819D02*
X141285714Y-40644819D01*
X142095238Y-39740057D02*
X142142857Y-39692438D01*
X142142857Y-39692438D02*
X142238095Y-39644819D01*
X142238095Y-39644819D02*
X142476190Y-39644819D01*
X142476190Y-39644819D02*
X142571428Y-39692438D01*
X142571428Y-39692438D02*
X142619047Y-39740057D01*
X142619047Y-39740057D02*
X142666666Y-39835295D01*
X142666666Y-39835295D02*
X142666666Y-39930533D01*
X142666666Y-39930533D02*
X142619047Y-40073390D01*
X142619047Y-40073390D02*
X142047619Y-40644819D01*
X142047619Y-40644819D02*
X142666666Y-40644819D01*
X114264819Y-62833333D02*
X114979104Y-62833333D01*
X114979104Y-62833333D02*
X115121961Y-62880952D01*
X115121961Y-62880952D02*
X115217200Y-62976190D01*
X115217200Y-62976190D02*
X115264819Y-63119047D01*
X115264819Y-63119047D02*
X115264819Y-63214285D01*
X115264819Y-61833333D02*
X115264819Y-62404761D01*
X115264819Y-62119047D02*
X114264819Y-62119047D01*
X114264819Y-62119047D02*
X114407676Y-62214285D01*
X114407676Y-62214285D02*
X114502914Y-62309523D01*
X114502914Y-62309523D02*
X114550533Y-62404761D01*
X92464285Y-66431009D02*
X92607142Y-66478628D01*
X92607142Y-66478628D02*
X92654761Y-66526247D01*
X92654761Y-66526247D02*
X92702380Y-66621485D01*
X92702380Y-66621485D02*
X92702380Y-66764342D01*
X92702380Y-66764342D02*
X92654761Y-66859580D01*
X92654761Y-66859580D02*
X92607142Y-66907200D01*
X92607142Y-66907200D02*
X92511904Y-66954819D01*
X92511904Y-66954819D02*
X92130952Y-66954819D01*
X92130952Y-66954819D02*
X92130952Y-65954819D01*
X92130952Y-65954819D02*
X92464285Y-65954819D01*
X92464285Y-65954819D02*
X92559523Y-66002438D01*
X92559523Y-66002438D02*
X92607142Y-66050057D01*
X92607142Y-66050057D02*
X92654761Y-66145295D01*
X92654761Y-66145295D02*
X92654761Y-66240533D01*
X92654761Y-66240533D02*
X92607142Y-66335771D01*
X92607142Y-66335771D02*
X92559523Y-66383390D01*
X92559523Y-66383390D02*
X92464285Y-66431009D01*
X92464285Y-66431009D02*
X92130952Y-66431009D01*
X92988095Y-65954819D02*
X93559523Y-65954819D01*
X93273809Y-66954819D02*
X93273809Y-65954819D01*
X94416666Y-66954819D02*
X93845238Y-66954819D01*
X94130952Y-66954819D02*
X94130952Y-65954819D01*
X94130952Y-65954819D02*
X94035714Y-66097676D01*
X94035714Y-66097676D02*
X93940476Y-66192914D01*
X93940476Y-66192914D02*
X93845238Y-66240533D01*
D11*
%TO.C,D1*%
X150383107Y-60580075D02*
G75*
G02*
X145035000Y-61044830I-2788107J1080075D01*
G01*
X149849656Y-60580059D02*
G75*
G02*
X145340316Y-60580000I-2254656J1080059D01*
G01*
X145340316Y-58420000D02*
G75*
G02*
X149849656Y-58419941I2254684J-1080000D01*
G01*
X145035000Y-57955170D02*
G75*
G02*
X150383107Y-58419925I2560000J-1544830D01*
G01*
X145035000Y-60580000D02*
X145035000Y-61045000D01*
X145035000Y-57955000D02*
X145035000Y-58420000D01*
D12*
%TO.C,U2*%
X88530000Y-56032500D02*
X88530000Y-43967500D01*
X88530000Y-43967500D02*
G75*
G02*
X91070000Y-41427500I2540000J0D01*
G01*
X91070000Y-41427500D02*
X113930000Y-41427500D01*
X113930000Y-41427500D02*
G75*
G02*
X116470000Y-43967500I0J-2540000D01*
G01*
X116470000Y-43967500D02*
X116470000Y-56032500D01*
X116470000Y-56032500D02*
G75*
G02*
X113930000Y-58572500I-2540000J0D01*
G01*
X113930000Y-58572500D02*
X91070000Y-58572500D01*
X91070000Y-58572500D02*
G75*
G02*
X88530000Y-56032500I0J2540000D01*
G01*
D13*
X117502000Y-56887000D02*
G75*
G02*
X117302000Y-56887000I-100000J0D01*
G01*
X117302000Y-56887000D02*
G75*
G02*
X117502000Y-56887000I100000J0D01*
G01*
D12*
%TO.C,U1*%
X137390000Y-43022500D02*
X137390000Y-63977500D01*
X119610000Y-63977500D02*
X119610000Y-43022500D01*
X119610000Y-43022500D02*
X137390000Y-43022500D01*
X137390000Y-63977500D02*
X119610000Y-63977500D01*
D13*
X119100000Y-45816500D02*
G75*
G02*
X118900000Y-45816500I-100000J0D01*
G01*
X118900000Y-45816500D02*
G75*
G02*
X119100000Y-45816500I100000J0D01*
G01*
%TO.C,SW1*%
X148600000Y-40500000D02*
G75*
G02*
X148400000Y-40500000I-100000J0D01*
G01*
X148400000Y-40500000D02*
G75*
G02*
X148600000Y-40500000I100000J0D01*
G01*
D12*
X150500000Y-41200000D02*
X146500000Y-41200000D01*
X146500000Y-41200000D02*
X146500000Y-52800000D01*
X146500000Y-52800000D02*
X150500000Y-52800000D01*
X150500000Y-52800000D02*
X150500000Y-41200000D01*
D11*
%TO.C,R3*%
X140360436Y-62165000D02*
X140814564Y-62165000D01*
X140360436Y-63635000D02*
X140814564Y-63635000D01*
%TO.C,R2*%
X140360436Y-57765000D02*
X140814564Y-57765000D01*
X140360436Y-59235000D02*
X140814564Y-59235000D01*
%TO.C,R1*%
X140360436Y-53765000D02*
X140814564Y-53765000D01*
X140360436Y-55235000D02*
X140814564Y-55235000D01*
%TO.C,J2*%
X140670000Y-44230000D02*
X140670000Y-49370000D01*
X140670000Y-44230000D02*
X143330000Y-44230000D01*
X140670000Y-49370000D02*
X143330000Y-49370000D01*
X142000000Y-41630000D02*
X143330000Y-41630000D01*
X143330000Y-41630000D02*
X143330000Y-42960000D01*
X143330000Y-44230000D02*
X143330000Y-49370000D01*
%TO.C,J1*%
X110770000Y-63830000D02*
X103090000Y-63830000D01*
X113370000Y-63830000D02*
X112040000Y-63830000D01*
X113370000Y-62500000D02*
X113370000Y-63830000D01*
X103090000Y-61170000D02*
X103090000Y-63830000D01*
X110770000Y-61170000D02*
X110770000Y-63830000D01*
X110770000Y-61170000D02*
X103090000Y-61170000D01*
%TO.C,BT1*%
X89090000Y-62610000D02*
X89090000Y-65110000D01*
X89090000Y-65110000D02*
X91590000Y-65110000D01*
X89390000Y-60790000D02*
X89390000Y-64810000D01*
X89390000Y-62500000D02*
X89890000Y-62500000D01*
X89390000Y-63310000D02*
X90390000Y-63310000D01*
X89390000Y-64810000D02*
X97110000Y-64810000D01*
X89890000Y-61290000D02*
X96610000Y-61290000D01*
X89890000Y-62500000D02*
X89890000Y-61290000D01*
X90390000Y-63310000D02*
X90390000Y-64810000D01*
X96110000Y-63310000D02*
X96110000Y-64810000D01*
X96610000Y-61290000D02*
X96610000Y-62500000D01*
X96610000Y-62500000D02*
X97110000Y-62500000D01*
X97110000Y-60790000D02*
X89390000Y-60790000D01*
X97110000Y-63310000D02*
X96110000Y-63310000D01*
X97110000Y-64810000D02*
X97110000Y-60790000D01*
%TD*%
M02*
