M48
; DRILL file {KiCad 8.0.8} date 2025-05-04T21:31:53-0700
; FORMAT={-:-/ absolute / inch / decimal}
; #@! TF.CreationDate,2025-05-04T21:31:53-07:00
; #@! TF.GenerationSoftware,Kicad,Pcbnew,8.0.8
; #@! TF.FileFunction,Plated,1,2,PTH
FMAT,2
INCH
; #@! TA.AperFunction,Plated,PTH,ComponentDrill
T1C0.0295
; #@! TA.AperFunction,Plated,PTH,ComponentDrill
T2C0.0335
; #@! TA.AperFunction,Plated,PTH,ComponentDrill
T3C0.0354
; #@! TA.AperFunction,Plated,PTH,ComponentDrill
T4C0.0394
%
G90
G05
T1
X6.2205Y-2.5984
X6.2992Y-2.5984
T2
X5.0693Y-2.7559
X5.0693Y-2.8559
X5.0693Y-2.9559
X5.0693Y-3.0559
X5.0693Y-3.1559
X5.0693Y-3.2559
X5.0693Y-3.3559
X5.6693Y-2.7559
X5.6693Y-2.8559
X5.6693Y-2.9559
X5.6693Y-3.0559
X5.6693Y-3.1559
X5.6693Y-3.2559
X5.6693Y-3.3559
T3
X5.9252Y-2.5197
X5.9252Y-2.5795
X5.9252Y-2.6378
X5.9252Y-2.6969
X6.5945Y-2.6181
X6.6929Y-2.6181
X6.7913Y-2.6181
T4
X6.0453Y-3.3768
X6.1453Y-3.3768
X6.2453Y-3.3768
X6.3453Y-3.3768
X6.4453Y-3.3768
X6.5453Y-3.3768
M30
