%TF.GenerationSoftware,KiCad,Pcbnew,8.0.8*%
%TF.CreationDate,2025-05-04T21:31:51-07:00*%
%TF.ProjectId,ACL_ToF,41434c5f-546f-4462-9e6b-696361645f70,rev?*%
%TF.SameCoordinates,Original*%
%TF.FileFunction,Copper,L1,Top*%
%TF.FilePolarity,Positive*%
%FSLAX46Y46*%
G04 Gerber Fmt 4.6, Leading zero omitted, Abs format (unit mm)*
G04 Created by KiCad (PCBNEW 8.0.8) date 2025-05-04 21:31:51*
%MOMM*%
%LPD*%
G01*
G04 APERTURE LIST*
G04 Aperture macros list*
%AMRoundRect*
0 Rectangle with rounded corners*
0 $1 Rounding radius*
0 $2 $3 $4 $5 $6 $7 $8 $9 X,Y pos of 4 corners*
0 Add a 4 corners polygon primitive as box body*
4,1,4,$2,$3,$4,$5,$6,$7,$8,$9,$2,$3,0*
0 Add four circle primitives for the rounded corners*
1,1,$1+$1,$2,$3*
1,1,$1+$1,$4,$5*
1,1,$1+$1,$6,$7*
1,1,$1+$1,$8,$9*
0 Add four rect primitives between the rounded corners*
20,1,$1+$1,$2,$3,$4,$5,0*
20,1,$1+$1,$4,$5,$6,$7,0*
20,1,$1+$1,$6,$7,$8,$9,0*
20,1,$1+$1,$8,$9,$2,$3,0*%
G04 Aperture macros list end*
%TA.AperFunction,ComponentPad*%
%ADD10R,1.408000X1.408000*%
%TD*%
%TA.AperFunction,ComponentPad*%
%ADD11C,1.408000*%
%TD*%
%TA.AperFunction,SMDPad,CuDef*%
%ADD12RoundRect,0.250000X-0.450000X0.262500X-0.450000X-0.262500X0.450000X-0.262500X0.450000X0.262500X0*%
%TD*%
%TA.AperFunction,ComponentPad*%
%ADD13RoundRect,0.250000X-0.350000X-0.625000X0.350000X-0.625000X0.350000X0.625000X-0.350000X0.625000X0*%
%TD*%
%TA.AperFunction,ComponentPad*%
%ADD14O,1.200000X1.750000*%
%TD*%
%TA.AperFunction,ComponentPad*%
%ADD15R,1.800000X1.100000*%
%TD*%
%TA.AperFunction,ComponentPad*%
%ADD16O,1.800000X1.100000*%
%TD*%
%TA.AperFunction,ComponentPad*%
%ADD17R,1.358000X1.358000*%
%TD*%
%TA.AperFunction,ComponentPad*%
%ADD18C,1.358000*%
%TD*%
%TA.AperFunction,ComponentPad*%
%ADD19R,1.700000X1.700000*%
%TD*%
%TA.AperFunction,ComponentPad*%
%ADD20O,1.700000X1.700000*%
%TD*%
%TA.AperFunction,Conductor*%
%ADD21C,0.200000*%
%TD*%
G04 APERTURE END LIST*
D10*
%TO.P,SW1,1,A*%
%TO.N,/VCC*%
X172500000Y-66500000D03*
D11*
%TO.P,SW1,2,B*%
%TO.N,/BT1+*%
X170000000Y-66500000D03*
%TO.P,SW1,3,C*%
%TO.N,unconnected-(SW1-C-Pad3)*%
X167500000Y-66500000D03*
%TD*%
D12*
%TO.P,R3,1*%
%TO.N,Net-(U1-RX_D7)*%
X175000000Y-80675000D03*
%TO.P,R3,2*%
%TO.N,/LED_B*%
X175000000Y-82500000D03*
%TD*%
D13*
%TO.P,BT1,1,+*%
%TO.N,/BT1+*%
X158000000Y-66000000D03*
D14*
%TO.P,BT1,2,-*%
%TO.N,/GND*%
X160000000Y-66000000D03*
%TD*%
D15*
%TO.P,D1,1,RK*%
%TO.N,/LED_R*%
X150500000Y-64000000D03*
D16*
%TO.P,D1,2,GK*%
%TO.N,/LED_G*%
X150500000Y-65520000D03*
%TO.P,D1,3,BK*%
%TO.N,/LED_B*%
X150500000Y-67000000D03*
%TO.P,D1,4,A*%
%TO.N,/GND*%
X150500000Y-68500000D03*
%TD*%
D12*
%TO.P,R2,1*%
%TO.N,Net-(U1-D8)*%
X175000000Y-76000000D03*
%TO.P,R2,2*%
%TO.N,/LED_G*%
X175000000Y-77825000D03*
%TD*%
%TO.P,R1,1*%
%TO.N,Net-(U1-D9)*%
X175000000Y-71262500D03*
%TO.P,R1,2*%
%TO.N,/LED_R*%
X175000000Y-73087500D03*
%TD*%
D17*
%TO.P,U1,1,D0*%
%TO.N,unconnected-(U1-D0-Pad1)*%
X128760000Y-70000000D03*
D18*
%TO.P,U1,2,D1*%
%TO.N,unconnected-(U1-D1-Pad2)*%
X128760000Y-72540000D03*
%TO.P,U1,3,D2*%
%TO.N,unconnected-(U1-D2-Pad3)*%
X128760000Y-75080000D03*
%TO.P,U1,4,D3*%
%TO.N,unconnected-(U1-D3-Pad4)*%
X128760000Y-77620000D03*
%TO.P,U1,5,D4*%
%TO.N,Net-(J1-SDA)*%
X128760000Y-80160000D03*
%TO.P,U1,6,D5*%
%TO.N,Net-(J1-SCL)*%
X128760000Y-82700000D03*
%TO.P,U1,7,TX_D6*%
%TO.N,unconnected-(U1-TX_D6-Pad7)*%
X128760000Y-85240000D03*
%TO.P,U1,8,RX_D7*%
%TO.N,Net-(U1-RX_D7)*%
X144000000Y-85240000D03*
%TO.P,U1,9,D8*%
%TO.N,Net-(U1-D8)*%
X144000000Y-82700000D03*
%TO.P,U1,10,D9*%
%TO.N,Net-(U1-D9)*%
X144000000Y-80160000D03*
%TO.P,U1,11,D10*%
%TO.N,unconnected-(U1-D10-Pad11)*%
X144000000Y-77620000D03*
%TO.P,U1,12,VCC_3V3*%
%TO.N,/3V3*%
X144000000Y-75080000D03*
%TO.P,U1,13,GND*%
%TO.N,/GND*%
X144000000Y-72540000D03*
%TO.P,U1,14,VUSB*%
%TO.N,/VCC*%
X144000000Y-70000000D03*
%TD*%
D19*
%TO.P,J1,1,VIN*%
%TO.N,/3V3*%
X153550000Y-85770000D03*
D20*
%TO.P,J1,2,GND*%
%TO.N,/GND*%
X156090000Y-85770000D03*
%TO.P,J1,3,SCL*%
%TO.N,Net-(J1-SCL)*%
X158630000Y-85770000D03*
%TO.P,J1,4,SDA*%
%TO.N,Net-(J1-SDA)*%
X161170000Y-85770000D03*
%TO.P,J1,5,GPIO1*%
%TO.N,unconnected-(J1-GPIO1-Pad5)*%
X163710000Y-85770000D03*
%TO.P,J1,6,XSHUT*%
%TO.N,unconnected-(J1-XSHUT-Pad6)*%
X166250000Y-85770000D03*
%TD*%
D21*
%TO.N,/GND*%
X143021000Y-71561000D02*
X144000000Y-72540000D01*
X160000000Y-66000000D02*
X156500000Y-69500000D01*
X150690000Y-68500000D02*
X144115484Y-68500000D01*
X143021000Y-69594484D02*
X143021000Y-71561000D01*
X151690000Y-69500000D02*
X150690000Y-68500000D01*
X156500000Y-69500000D02*
X151690000Y-69500000D01*
X144115484Y-68500000D02*
X143021000Y-69594484D01*
%TO.N,/VCC*%
X144500000Y-70500000D02*
X168500000Y-70500000D01*
X168500000Y-70500000D02*
X172500000Y-66500000D01*
X144000000Y-70000000D02*
X144500000Y-70500000D01*
%TO.N,/LED_G*%
X150000000Y-62500000D02*
X175000000Y-62500000D01*
X150100000Y-65520000D02*
X149300000Y-64720000D01*
X175000000Y-62500000D02*
X176500000Y-64000000D01*
X149300000Y-64720000D02*
X149300000Y-63200000D01*
X176500000Y-64000000D02*
X176500000Y-76325000D01*
X149300000Y-63200000D02*
X150000000Y-62500000D01*
X150500000Y-65520000D02*
X150100000Y-65520000D01*
X176500000Y-76325000D02*
X175000000Y-77825000D01*
%TO.N,/LED_R*%
X172008000Y-64000000D02*
X176000000Y-67992000D01*
X176000000Y-67992000D02*
X176000000Y-72087500D01*
X176000000Y-72087500D02*
X175000000Y-73087500D01*
X150500000Y-64000000D02*
X172008000Y-64000000D01*
%TO.N,/LED_B*%
X149600000Y-62000000D02*
X175500000Y-62000000D01*
X150500000Y-67000000D02*
X150100000Y-67000000D01*
X177000000Y-80500000D02*
X175000000Y-82500000D01*
X175500000Y-62000000D02*
X177000000Y-63500000D01*
X148900000Y-65800000D02*
X148900000Y-62700000D01*
X148900000Y-62700000D02*
X149600000Y-62000000D01*
X150100000Y-67000000D02*
X148900000Y-65800000D01*
X177000000Y-63500000D02*
X177000000Y-80500000D01*
%TO.N,Net-(J1-SDA)*%
X127781000Y-86681000D02*
X128020000Y-86920000D01*
X127781000Y-81139000D02*
X127781000Y-86681000D01*
X128760000Y-80160000D02*
X127781000Y-81139000D01*
X128020000Y-86920000D02*
X160020000Y-86920000D01*
X160020000Y-86920000D02*
X161170000Y-85770000D01*
%TO.N,Net-(J1-SCL)*%
X152380000Y-84620000D02*
X157480000Y-84620000D01*
X132279000Y-86219000D02*
X150781000Y-86219000D01*
X157480000Y-84620000D02*
X158630000Y-85770000D01*
X128760000Y-82700000D02*
X132279000Y-86219000D01*
X150781000Y-86219000D02*
X152380000Y-84620000D01*
%TO.N,Net-(U1-D9)*%
X144000000Y-80160000D02*
X152897500Y-71262500D01*
X152897500Y-71262500D02*
X175000000Y-71262500D01*
%TO.N,Net-(U1-D8)*%
X144000000Y-82700000D02*
X150700000Y-76000000D01*
X150700000Y-76000000D02*
X175000000Y-76000000D01*
%TO.N,Net-(U1-RX_D7)*%
X144000000Y-85240000D02*
X148565000Y-80675000D01*
X148565000Y-80675000D02*
X175000000Y-80675000D01*
%TD*%
M02*
