<svg width="20" height="21" viewBox="0 0 20 21" fill="none" xmlns="http://www.w3.org/2000/svg">
<g clip-path="url(#clip0_268_241)">
<path d="M3.83338 19.875V14.6542C2.68195 13.5875 1.87894 12.1984 1.52916 10.6682C1.17939 9.13817 1.29913 7.53813 1.87274 6.07712C2.44634 4.6161 3.44716 3.362 4.74451 2.47856C6.04187 1.59512 7.57546 1.1234 9.14501 1.125C15.0942 1.125 16.3783 6.02333 18.4992 11.525C18.5355 11.6197 18.5483 11.7218 18.5364 11.8226C18.5245 11.9233 18.4883 12.0197 18.4309 12.1033C18.3735 12.1869 18.2967 12.2553 18.2069 12.3027C18.1172 12.35 18.0173 12.3748 17.9158 12.375H16.3333V14.875C16.3333 15.5381 16.07 16.1739 15.6012 16.6427C15.1323 17.1116 14.4964 17.375 13.8333 17.375H12.5833V19.875" stroke="#6A6A6A" stroke-width="1.25" stroke-linecap="round" stroke-linejoin="round"/>
<path d="M13.8333 8C13.8333 7.83424 13.7675 7.67527 13.6502 7.55806C13.5331 7.44085 13.3741 7.375 13.2083 7.375H11.3333V5.5C11.3333 5.33424 11.2675 5.17527 11.1502 5.05806C11.0331 4.94085 10.8741 4.875 10.7083 4.875H8.20831C8.04255 4.875 7.88358 4.94085 7.76637 5.05806C7.64915 5.17527 7.58331 5.33424 7.58331 5.5V7.375H5.70748C5.54186 7.37522 5.3831 7.44117 5.26607 7.55835C5.14905 7.67554 5.08331 7.83438 5.08331 8V10.5C5.08331 10.6657 5.14915 10.8247 5.26637 10.9419C5.38358 11.0592 5.54255 11.125 5.70831 11.125H7.58331V13C7.58331 13.1657 7.64915 13.3247 7.76637 13.4419C7.88358 13.5592 8.04255 13.625 8.20831 13.625H10.7083C10.8741 13.625 11.0331 13.5592 11.1502 13.4419C11.2675 13.3247 11.3333 13.1657 11.3333 13V11.125H13.2083C13.3741 11.125 13.5331 11.0592 13.6502 10.9419C13.7675 10.8247 13.8333 10.6657 13.8333 10.5V8Z" stroke="#6A6A6A" stroke-width="1.25" stroke-linecap="round" stroke-linejoin="round"/>
</g>
<defs>
<clipPath id="clip0_268_241">
<rect width="20" height="20" fill="white" transform="translate(0 0.5)"/>
</clipPath>
</defs>
</svg>
